# xmcd
#
# Track frame offsets:
#	150
#	17704
#	37418
#	59170
#	75301
#	94583
#	118102
#	143383
#	163293
#
# Disc length: 2451 seconds
#
# Revision: 1
# Processed by: cddbd v1.4PL0 Copyright (c) Steve Scherf et al.
# Submitted via: audiograbber 1.82.01
#
DISCID=76099109
DTITLE=Aline Khalaf - Law Andak Kalam
DYEAR=2003
DGENRE=
TTITLE0=Law Andak Kalam
TTITLE1=Walla Waheshni
TTITLE2=Ya Tara Wahshak
TTITLE3=Haymana
TTITLE4=La La La
TTITLE5=Khafef Nawmi
TTITLE6=Ezzay
TTITLE7=3a Ghafleh
TTITLE8=Wallah Haram
EXTD=
EXTT0=
EXTT1=
EXTT2=
EXTT3=
EXTT4=
EXTT5=
EXTT6=
EXTT7=
EXTT8=
PLAYORDER=
